<?xml version="1.0" encoding="utf-8"?>
<!-- Generator: Adobe Illustrator 25.2.3, SVG Export Plug-In . SVG Version: 6.00 Build 0)  -->
<svg version="1.1" id="图层_1" xmlns="http://www.w3.org/2000/svg" xmlns:xlink="http://www.w3.org/1999/xlink" x="0px" y="0px"
	 viewBox="0 0 152 27" style="enable-background:new 0 0 152 27;" xml:space="preserve">
<g id="控件">
	<g id="编组" transform="translate(0.000000, -0.000000)">
		<g>
			<g id="Clip-2">
			</g>
			<defs>
				<filter id="Adobe_OpacityMaskFilter" filterUnits="userSpaceOnUse" x="0" y="0.6" width="39.2" height="26.3">
					<feColorMatrix  type="matrix" values="1 0 0 0 0  0 1 0 0 0  0 0 1 0 0  0 0 0 1 0"/>
				</filter>
			</defs>
			<mask maskUnits="userSpaceOnUse" x="0" y="0.6" width="39.2" height="26.3" id="mask-2_1_">
				<g style="filter:url(#Adobe_OpacityMaskFilter);">
					<polygon id="path-1_1_" style="fill-rule:evenodd;clip-rule:evenodd;fill:#FFFFFF;" points="0,0.6 39.2,0.6 39.2,26.9 0,26.9 
											"/>
				</g>
			</mask>
			<path id="Fill-1" style="mask:url(#mask-2_1_);fill-rule:evenodd;clip-rule:evenodd;fill:#FEFEFE;" d="M4.9,17.3
				c-0.4-0.3-1.3-1-1.3-2.1c0-0.4,0.1-0.7,0.3-1.1C6,10.3,18.1,5.5,35.8,5c0,0,0,0,0.1,0l3.3-4.2c0.1-0.1,0-0.2-0.1-0.2
				C11.1,1.5,0.3,9.7,0,13.3c-0.1,1.9,2.8,3.6,4.9,4.5c0.1,1.9,3.2,3.6,4.8,4.3c0.2,1.8,3.4,4,7.2,4.8c0.2,0,0.3-0.2,0.1-0.2
				c-2.8-1.3-3.7-2.5-3.5-3.6c0.2-1,1.2-1.9,3.1-2.7c3.3-1.3,7.7-1.9,11.5-2.1l3-3.9c0.1-0.1,0-0.2-0.1-0.2
				c-13,0.5-20.5,3.9-21.3,7.1c0,0.1,0,0.2-0.1,0.3c-0.7-0.5-1.3-1.2-1.4-2c0-0.3,0.1-0.6,0.2-0.9c1.4-2.7,8.9-6.5,23.3-6.9l3.1-4
				c0.1-0.1,0-0.2-0.1-0.2C17.1,7.8,5.5,13.1,4.9,17.3"/>
		</g>
		<path id="Fill-3" style="fill-rule:evenodd;clip-rule:evenodd;fill:#FEFEFE;" d="M86.7,20.8c-2.2,0-4.1-1.8-4.1-4.1
			c0-2.2,1.8-4.1,4.1-4.1c2.2,0,4.1,1.8,4.1,4.1C90.8,19,89,20.8,86.7,20.8L86.7,20.8z M91,11.2c-1.2-0.9-2.7-1.5-4.3-1.5
			c-3.9,0-7,3.1-7,7s3.1,7,7,7c1.6,0,3.1-0.5,4.3-1.5v1.4h3.2v-18H91V11.2z"/>
		<path id="Fill-5" style="fill-rule:evenodd;clip-rule:evenodd;fill:#FEFEFE;" d="M144.5,20.8c-2.2,0-4.1-1.8-4.1-4.1
			c0-2.2,1.8-4.1,4.1-4.1s4.1,1.8,4.1,4.1C148.6,19,146.8,20.8,144.5,20.8L144.5,20.8z M148.8,11.2c-1.2-0.9-2.7-1.5-4.3-1.5
			c-3.9,0-7,3.1-7,7s3.1,7,7,7c1.6,0,3.1-0.5,4.3-1.5v1.4h3.2v-18h-3.2V11.2z"/>
		<path id="Fill-7" style="fill-rule:evenodd;clip-rule:evenodd;fill:#FEFEFE;" d="M132.9,23.8h3.2l0-8c0-1.2-0.4-2.4-1.1-3.5
			c-1.5-2.4-6.1-3-8.3-0.3c-0.1,0.1-0.2,0.2-0.4,0.4v-1.8h-3.2v13.2h3.3c0-0.1,0-0.3,0-0.4c0-2,0-4,0-6c0-0.4,0-0.8,0.1-1.2
			c0.1-1,0.6-2,1.4-2.6c1.8-1.2,4.5-0.4,4.9,1.7c0.1,0.7,0.1,1.8,0.1,2.3L132.9,23.8z"/>
		<g id="Clip-10">
		</g>
		<defs>
			<filter id="Adobe_OpacityMaskFilter_1_" filterUnits="userSpaceOnUse" x="75.1" y="5.7" width="3.2" height="18.1">
				<feColorMatrix  type="matrix" values="1 0 0 0 0  0 1 0 0 0  0 0 1 0 0  0 0 0 1 0"/>
			</filter>
		</defs>
		<mask maskUnits="userSpaceOnUse" x="75.1" y="5.7" width="3.2" height="18.1" id="mask-4_1_">
			<g style="filter:url(#Adobe_OpacityMaskFilter_1_);">
				<polygon id="path-3_1_" style="fill-rule:evenodd;clip-rule:evenodd;fill:#FFFFFF;" points="0,26.9 152,26.9 152,0.6 0,0.6 				
					"/>
			</g>
		</mask>
		<polygon id="Fill-9" style="mask:url(#mask-4_1_);fill-rule:evenodd;clip-rule:evenodd;fill:#FEFEFE;" points="75.1,23.8 
			78.4,23.8 78.4,5.7 75.1,5.7 		"/>
		<defs>
			<filter id="Adobe_OpacityMaskFilter_2_" filterUnits="userSpaceOnUse" x="117.6" y="10.5" width="3.2" height="13.2">
				<feColorMatrix  type="matrix" values="1 0 0 0 0  0 1 0 0 0  0 0 1 0 0  0 0 0 1 0"/>
			</filter>
		</defs>
		<mask maskUnits="userSpaceOnUse" x="117.6" y="10.5" width="3.2" height="13.2" id="mask-4_2_">
			<g style="filter:url(#Adobe_OpacityMaskFilter_2_);">
				<polygon id="path-3_2_" style="fill-rule:evenodd;clip-rule:evenodd;fill:#FFFFFF;" points="0,26.9 152,26.9 152,0.6 0,0.6 				
					"/>
			</g>
		</mask>
		<polygon id="Fill-11" style="mask:url(#mask-4_2_);fill-rule:evenodd;clip-rule:evenodd;fill:#FEFEFE;" points="117.6,23.8 
			120.8,23.8 120.8,10.5 117.6,10.5 		"/>
		<defs>
			<filter id="Adobe_OpacityMaskFilter_3_" filterUnits="userSpaceOnUse" x="95.4" y="10.6" width="20.5" height="13.1">
				<feColorMatrix  type="matrix" values="1 0 0 0 0  0 1 0 0 0  0 0 1 0 0  0 0 0 1 0"/>
			</filter>
		</defs>
		<mask maskUnits="userSpaceOnUse" x="95.4" y="10.6" width="20.5" height="13.1" id="mask-4_3_">
			<g style="filter:url(#Adobe_OpacityMaskFilter_3_);">
				<polygon id="path-3_3_" style="fill-rule:evenodd;clip-rule:evenodd;fill:#FFFFFF;" points="0,26.9 152,26.9 152,0.6 0,0.6 				
					"/>
			</g>
		</mask>
		<polygon id="Fill-12" style="mask:url(#mask-4_3_);fill-rule:evenodd;clip-rule:evenodd;fill:#FEFEFE;" points="110.1,19.8 
			107.4,10.6 104,10.6 101.4,19.8 98.8,10.6 95.4,10.6 99.6,23.8 103.1,23.8 105.6,14.8 108.3,23.8 111.9,23.8 116,10.6 112.7,10.6 
					"/>
		<defs>
			<filter id="Adobe_OpacityMaskFilter_4_" filterUnits="userSpaceOnUse" x="117.6" y="5.7" width="3.2" height="3.2">
				<feColorMatrix  type="matrix" values="1 0 0 0 0  0 1 0 0 0  0 0 1 0 0  0 0 0 1 0"/>
			</filter>
		</defs>
		<mask maskUnits="userSpaceOnUse" x="117.6" y="5.7" width="3.2" height="3.2" id="mask-4_4_">
			<g style="filter:url(#Adobe_OpacityMaskFilter_4_);">
				<polygon id="path-3_4_" style="fill-rule:evenodd;clip-rule:evenodd;fill:#FFFFFF;" points="0,26.9 152,26.9 152,0.6 0,0.6 				
					"/>
			</g>
		</mask>
		<polygon id="Fill-13" style="mask:url(#mask-4_4_);fill-rule:evenodd;clip-rule:evenodd;fill:#FEFEFE;" points="117.6,8.9 
			120.8,8.9 120.8,5.7 117.6,5.7 		"/>
		<defs>
			<filter id="Adobe_OpacityMaskFilter_5_" filterUnits="userSpaceOnUse" x="39.7" y="5.7" width="18.3" height="18.3">
				<feColorMatrix  type="matrix" values="1 0 0 0 0  0 1 0 0 0  0 0 1 0 0  0 0 0 1 0"/>
			</filter>
		</defs>
		<mask maskUnits="userSpaceOnUse" x="39.7" y="5.7" width="18.3" height="18.3" id="mask-4_5_">
			<g style="filter:url(#Adobe_OpacityMaskFilter_5_);">
				<polygon id="path-3_5_" style="fill-rule:evenodd;clip-rule:evenodd;fill:#FFFFFF;" points="0,26.9 152,26.9 152,0.6 0,0.6 				
					"/>
			</g>
		</mask>
		<path id="Fill-14" style="mask:url(#mask-4_5_);fill-rule:evenodd;clip-rule:evenodd;fill:#FEFEFE;" d="M57.9,13.9l-10.6,0v2.8
			h7.3c-0.8,2.5-3.2,4.3-5.8,4.3c-3.4,0-6.1-2.7-6.1-6.1s2.7-6.1,6.1-6.1c2,0,3.9,1,5,2.6h3.5c-1.4-3.4-4.7-5.7-8.5-5.7
			c-5,0-9.2,4.1-9.2,9.2c0,5,4.1,9.2,9.2,9.2c5,0,9.2-4.1,9.2-9.2c0-0.2,0-0.4,0-0.7L57.9,13.9z"/>
		<defs>
			<filter id="Adobe_OpacityMaskFilter_6_" filterUnits="userSpaceOnUse" x="59.4" y="9.7" width="14.3" height="14.3">
				<feColorMatrix  type="matrix" values="1 0 0 0 0  0 1 0 0 0  0 0 1 0 0  0 0 0 1 0"/>
			</filter>
		</defs>
		<mask maskUnits="userSpaceOnUse" x="59.4" y="9.7" width="14.3" height="14.3" id="mask-4_6_">
			<g style="filter:url(#Adobe_OpacityMaskFilter_6_);">
				<polygon id="path-3_6_" style="fill-rule:evenodd;clip-rule:evenodd;fill:#FFFFFF;" points="0,26.9 152,26.9 152,0.6 0,0.6 				
					"/>
			</g>
		</mask>
		<path id="Fill-15" style="mask:url(#mask-4_6_);fill-rule:evenodd;clip-rule:evenodd;fill:#FEFEFE;" d="M66.6,21.2
			c-2.4,0-4.3-1.9-4.3-4.3s1.9-4.3,4.3-4.3c2.4,0,4.3,1.9,4.3,4.3S69,21.2,66.6,21.2 M66.6,9.7c-4,0-7.2,3.2-7.2,7.2
			c0,4,3.2,7.2,7.2,7.2c4,0,7.2-3.2,7.2-7.2C73.7,12.9,70.5,9.7,66.6,9.7"/>
	</g>
</g>
</svg>
