<?xml version="1.0" encoding="utf-8"?>
<!-- Generator: Adobe Illustrator 25.2.3, SVG Export Plug-In . SVG Version: 6.00 Build 0)  -->
<svg version="1.1" id="图层_1" xmlns="http://www.w3.org/2000/svg" xmlns:xlink="http://www.w3.org/1999/xlink" x="0px" y="0px"
	 viewBox="0 0 280.1 24" style="enable-background:new 0 0 280.1 24;" xml:space="preserve">
<g style="enable-background:new    ;">
	<path style="fill:#FFFFFF;" d="M14.2,10v2.3H24V15h-9.8v6.3h3.7l0.8-4.9H23l-0.8,4.9h2.2V24H0v-2.7h2.2l-0.8-4.9h4.4l0.8,4.9h3.6
		V15H0.4v-2.7h9.8V10H1.7V8.6H0L1.6,0h4.1L4.3,7.3h15.8l-0.8-4.5H6L6.4,0h16.5l1.6,8.6h-1.6V10H14.2z"/>
	<path style="fill:#FFFFFF;" d="M50,22.4c-0.5,0-0.9,0.2-1.3,0.5c-0.3,0.2-0.5,0.5-0.6,0.9V24h0h-3h-0.7V2.3H29.6v15.5L29.2,24h-3.7
		l0.4-6.1V0h3.7v1.4L30.7,0h13.6h3h0.8v21.7H50V22.4z M34.5,3.7L37,9.1l2.6-5.4h3.7L38.9,13l4.4,9.3h-3.7L37,16.9l-2.6,5.4h-3.7
		l4.4-9.3l-4.4-9.4H34.5z"/>
	<path style="fill:#FFFFFF;" d="M51.2,24l0.9-10.3h2.6L54,21.2h1.3v-8.4H51v-2.1h4.3V9.3H51V7.2h2.1l-0.7-3.2h3.4l0.7,3.2h1.8
		L59,4.1h3.4l-0.7,3.2h2.1v2.1h-4.6v1.5h4.6v2.1h-4.6V24h-3.8c0-0.4-0.3-0.9-0.7-1.3c-0.2-0.2-0.4-0.3-0.7-0.4L53.8,24H51.2z
		 M51.4,1.4h3.9V0h4.1v1.4H63v2.1H51.4V1.4z M59.8,13.7h2.6L63.3,24h-2.6L59.8,13.7z M73.9,24h-3.6V10.6h-2.3v0.9L67.2,24h-3.6
		l0.8-12.5V0h10.8v2.3h-7.1v5.9h7.9v2.3h-2V24z"/>
	<path style="fill:#FFFFFF;" d="M89.7,8.4v15V24h-4.1c-0.1-0.5-0.3-1-0.7-1.3s-0.9-0.6-1.5-0.6v-0.9H86v-2.4h-5L80.5,24h-3.7
		l0.5-5.2V8.4h2H81v1l1-1h4h1.6H89.7z M77.2,5.2L80.6,0h4l-3.3,5.2H86l-0.5-2.8h3.7l0.6,2.8v2.3H77.2V5.2z M81,10.8v1.7h5v-1.7H81z
		 M86,16.5v-1.7h-5v1.7H86z M90.7,0.3h3.8v2.9l5.3-1.4v2.5l-5.3,1.4v2.9h6.4v0.9c-0.6,0-1.1,0.2-1.5,0.6s-0.7,0.8-0.7,1.3h-4.2h-1.2
		h-2.5V0.3z M90.7,12.3h3.8v3.3l5.8-1.3v2.5l-5.8,1.3v3.1h6.8v0.9c-0.6,0-1.1,0.2-1.5,0.6S99.1,23.5,99,24h-4.5h-1.2h-2.5V12.3z"/>
	<path style="fill:#FFFFFF;" d="M105.9,24h-3.7l2-12.2h3.7L105.9,24z M104.3,4.8L103,0h3.7l1.3,4.7H104.3z M104.4,10.7l-1.4-5h3.7
		l1.4,5H104.4z M126.8,0.1v2.3h-14.2v15.5L112,24h-3.5l0.7-6.1h0V0.1h3.5v1.2l1.1-1.2H126.8z M116.1,24h-2.8l1.1-7.9h2.8L116.1,24z
		 M116.9,15.4h-0.5h-2.6h-0.2l0-11l3.4,0V6l0.9-1.6h0.5l0.8-1.6h3.7l-0.8,1.6l1.1,0h0h2.7h0.6v10.9h-3.3v-0.6h-1.4l0,9.4H118
		c0-0.6-0.1-1.1-0.3-1.5s-0.5-0.6-1-0.6v-0.7h1.7v-6.4h-1.5V15.4z M122.9,8.6V6.8h-6.1v1.8H122.9z M116.9,12.4h6.1v-1.9h-6.1V12.4z
		 M125.6,16.1l1.2,7.9H124l-1.1-7.9H125.6z"/>
	<path style="fill:#FFFFFF;" d="M127.8,12.2l2.9-4.1h-2.9V6h4.3l1.9-2.8h-2.2l-0.7,1.3h-3.4l2.4-4.5h3.4l-0.6,1.2h7.2v2.1h-2.7
		L135.5,6h5.5v2.1h-2.6l2.8,4.1h-3.4L135,8.1h-1l-2.9,4.1H127.8z M151.2,13v11h-3.7v-0.5h-14.7V24h-3.9V13h3.9v1.4l1.1-1.4h13.6v0
		H151.2z M132.8,15.4v1.8h14.7v-1.8H132.8z M132.8,19.3v1.8h14.7v-1.8H132.8z M144.8,0.6V2l1.1-1.4h6.4v11.6h-3.2v-0.4h-4.3v0.4
		h-3.2V0.6H144.8z M144.8,3v6.8h4.3V3H144.8z"/>
	<path style="fill:#FFFFFF;" d="M157.2,24h-3.9l1.2-5.8h3.9L157.2,24z M154.2,0.8h3.3V0h4.4v0.8h3.3v1.9h-3.3v0.6h2.7v1.9h-2.7v0.6
		h3.5v1.9h-3.5v0.9h-4.4V7.7H154V5.8h3.5V5.2h-2.8V3.3h2.8V2.7h-3.3V0.8z M154.6,15.2h17.6v-0.8h-16.3v-2.2h16.3v-0.7h-17.6V9.4h22
		v7.9h-22V15.2z M159.5,18.2h3.9l-0.9,4.1h10.3V24h-14.5L159.5,18.2z M168.2,21.3l-0.3-1.3h-3.9l0.4-1.8h7l0.6,3.1H168.2z
		 M166.1,0.8h3.3V0h4.4v0.8h3.3v1.9h-3.3v0.6h2.8v1.9h-2.8v0.6h3.5v1.9h-3.5v0.9h-4.4V7.7h-3.5V5.8h3.5V5.2h-2.8V3.3h2.8V2.7h-3.3
		V0.8z M174,24l-1.2-5.8h3.9l1.2,5.8H174z"/>
	<path style="fill:#FFFFFF;" d="M185,21.6h18.4V24h-24.6v-2.5h1.7V7.5h-1.7V5.3h5.1v17.6L185,21.6z M183.8,4.7h-3.4L179.1,0h3.4
		L183.8,4.7z M185.6,5.8h17.8v3h-10.2l-3,9h9l-1.6-4.5h4.2l1.5,4.5h0.1v2.7H186v-2.7l3.1-9h-3.4V5.8z M186.6,0h15.9v2.9h-15.9V0z"/>
	<path style="fill:#FFFFFF;" d="M204.4,1.2h4V0h3.8v1.2h9.1V0h3.8v1.2h4v2.6h-4V5h-3.8V3.8h-9.1V5h-3.8V3.8h-4V1.2z M204.4,5.8h3.5
		v1.3l1.3-1.3H229v3.8h-3.5V7.9h-17.6v1.7h-3.5V5.8z M228.1,16.5V24h-3.6v-0.3h-15.3V24h-3.8v-7.5h3.8v1l1.2-1H228.1z M226.5,8.6v7
		h-3.6l0.1-0.3h-11.9l0.2,0.3h-4v-7h3.8v1l1.2-1H226.5z M224.5,21.9v-3.4h-15.3v3.4H224.5z M223,13.4v-2.8h-11.9v2.8H223z"/>
	<path style="fill:#FFFFFF;" d="M230,12.7h10.2V2.6h-9.6V0h9.8v0h3.7v0h9.8v2.5h-9.6v10.1h10.2v2.6h-10.2V24h-4.2v-8.7H230V12.7z
		 M234.1,12l-1.8-8.7h3.9l1.8,8.7H234.1z M248.2,3.3h3.9l-1.8,8.7h-3.9L248.2,3.3z"/>
	<path style="fill:#FFFFFF;" d="M271.8,1.4h4l4.3,6.9v2.5h-24.6V8.3l6.2-8.2h4.1l-6.2,8.2h16.5L271.8,1.4z M255.5,11.7h3.7V13l1-1.3
		h19.8V24h-3.7v-1h-17.1v1h-3.7V11.7z M259.2,20.6h17.1V14h-17.1V20.6z"/>
</g>
</svg>
