<?xml version="1.0" encoding="utf-8"?>
<!-- Generator: Adobe Illustrator 26.5.0, SVG Export Plug-In . SVG Version: 6.00 Build 0)  -->
<svg version="1.1" id="图层_1" xmlns="http://www.w3.org/2000/svg" xmlns:xlink="http://www.w3.org/1999/xlink" x="0px" y="0px"
	 viewBox="0 0 229.1 24.1" style="enable-background:new 0 0 229.1 24.1;" xml:space="preserve">
<style type="text/css">
	.st0{enable-background:new    ;}
	.st1{fill:#FFFFFF;}
</style>
<g class="st0">
	<path class="st1" d="M0.2,24l0.9-10.3h2.6L3,21.2h1.3v-8.4H0v-2.1h4.3V9.3H0V7.2h2.1L1.4,4h3.4l0.7,3.2h1.8L8,4.1h3.4l-0.7,3.2h2.1
		v2.1H8.2v1.5h4.6V13H8.2v11H4.4c0-0.4-0.3-0.9-0.7-1.3c-0.2-0.2-0.4-0.3-0.7-0.4L2.8,24H0.2z M0.4,1.4h3.9V0h4.1v1.4H12v2.1H0.4
		V1.4z M8.8,13.7h2.6L12.3,24H9.7L8.8,13.7z M22.9,24h-3.6V10.6H17v0.9L16.2,24h-3.6l0.8-12.5V0h10.8v2.3h-7.1v5.9H25v2.3h-2V24
		H22.9z"/>
	<path class="st1" d="M38.7,8.4v15V24h-4.1c-0.1-0.5-0.3-1-0.7-1.3s-0.9-0.6-1.5-0.6v-0.9H35v-2.4h-5L29.5,24h-3.7l0.5-5.2V8.4h2H30
		v1l1-1h4h1.6H38.7z M26.2,5.2L29.6,0h4l-3.3,5.2H35l-0.5-2.8h3.7l0.6,2.8v2.3H26.2V5.2z M30,10.8v1.7h5v-1.7H30z M35,16.5v-1.7h-5
		v1.7H35z M39.7,0.3h3.8v2.9l5.3-1.4v2.5l-5.3,1.4v2.9h6.4v0.9c-0.6,0-1.1,0.2-1.5,0.6s-0.7,0.8-0.7,1.3h-4.2h-1.2h-2.5V0.3H39.7z
		 M39.7,12.3h3.8v3.3l5.8-1.3v2.5l-5.8,1.3v3.1h6.8v0.9c-0.6,0-1.1,0.2-1.5,0.6S48.1,23.5,48,24h-4.5h-1.2h-2.5V12.3H39.7z"/>
	<path class="st1" d="M54.9,24h-3.7l2-12.2h3.7L54.9,24z M53.3,4.8L52,0h3.7L57,4.7h-3.7V4.8z M53.4,10.7l-1.4-5h3.7l1.4,5H53.4z
		 M75.8,0.1v2.3H61.6v15.5L61,24h-3.5l0.7-6.1l0,0V0.1h3.5v1.2l1.1-1.2C62.8,0.1,75.8,0.1,75.8,0.1z M65.1,24h-2.8l1.1-7.9h2.8
		L65.1,24z M65.9,15.4h-0.5h-2.6h-0.2v-11H66V6l0.9-1.6h0.5l0.8-1.6h3.7l-0.8,1.6h1.1l0,0h2.7h0.6v10.9h-3.3v-0.6h-1.4v9.4H67
		c0-0.6-0.1-1.1-0.3-1.5s-0.5-0.6-1-0.6v-0.7h1.7v-6.4h-1.5C65.9,14.9,65.9,15.4,65.9,15.4z M71.9,8.6V6.8h-6.1v1.8H71.9z
		 M65.9,12.4H72v-1.9h-6.1V12.4z M74.6,16.1l1.2,7.9H73l-1.1-7.9H74.6z"/>
	<path class="st1" d="M76.8,12.2l2.9-4.1h-2.9V6h4.3L83,3.2h-2.2l-0.7,1.3h-3.4L79.1,0h3.4l-0.6,1.2h7.2v2.1h-2.7L84.5,6H90v2.1
		h-2.6l2.8,4.1h-3.4L84,8.1h-1l-2.9,4.1C80.1,12.2,76.8,12.2,76.8,12.2z M100.2,13v11h-3.7v-0.5H81.8V24h-3.9V13h3.9v1.4l1.1-1.4
		h13.6l0,0H100.2z M81.8,15.4v1.8h14.7v-1.8C96.5,15.4,81.8,15.4,81.8,15.4z M81.8,19.3v1.8h14.7v-1.8H81.8z M93.8,0.6V2l1.1-1.4
		h6.4v11.6h-3.2v-0.4h-4.3v0.4h-3.2V0.6H93.8z M93.8,3v6.8h4.3V3H93.8z"/>
	<path class="st1" d="M106.2,24h-3.9l1.2-5.8h3.9L106.2,24z M103.2,0.8h3.3V0h4.4v0.8h3.3v1.9h-3.3v0.6h2.7v1.9h-2.7v0.6h3.5v1.9
		h-3.5v0.9h-4.4V7.7H103V5.8h3.5V5.2h-2.8V3.3h2.8V2.7h-3.3V0.8z M103.6,15.2h17.6v-0.8h-16.3v-2.2h16.3v-0.7h-17.6V9.4h22v7.9h-22
		V15.2z M108.5,18.2h3.9l-0.9,4.1h10.3V24h-14.5L108.5,18.2z M117.2,21.3l-0.3-1.3H113l0.4-1.8h7l0.6,3.1
		C121,21.3,117.2,21.3,117.2,21.3z M115.1,0.8h3.3V0h4.4v0.8h3.3v1.9h-3.3v0.6h2.8v1.9h-2.8v0.6h3.5v1.9h-3.5v0.9h-4.4V7.7h-3.5V5.8
		h3.5V5.2h-2.8V3.3h2.8V2.7h-3.3V0.8z M123,24l-1.2-5.8h3.9l1.2,5.8H123z"/>
	<path class="st1" d="M134,21.6h18.4V24h-24.6v-2.5h1.7v-14h-1.7V5.3h5.1v17.6L134,21.6z M132.8,4.7h-3.4L128.1,0h3.4L132.8,4.7z
		 M134.6,5.8h17.8v3h-10.2l-3,9h9l-1.6-4.5h4.2l1.5,4.5h0.1v2.7H135v-2.7l3.1-9h-3.4v-3H134.6z M135.6,0h15.9v2.9h-15.9V0z"/>
	<path class="st1" d="M153.4,1.2h4V0h3.8v1.2h9.1V0h3.8v1.2h4v2.6h-4V5h-3.8V3.8h-9.1V5h-3.8V3.8h-4V1.2z M153.4,5.8h3.5v1.3
		l1.3-1.3H178v3.8h-3.5V7.9h-17.6v1.7h-3.5V5.8z M177.1,16.5V24h-3.6v-0.3h-15.3V24h-3.8v-7.5h3.8v1l1.2-1H177.1z M175.5,8.6v7h-3.6
		l0.1-0.3h-11.9l0.2,0.3h-4v-7h3.8v1l1.2-1H175.5z M173.5,21.9v-3.4h-15.3v3.4H173.5z M172,13.4v-2.8h-11.9v2.8H172z"/>
	<path class="st1" d="M179,12.7h10.2V2.6h-9.6V0h9.8l0,0h3.7l0,0h9.8v2.5h-9.6v10.1h10.2v2.6h-10.2V24h-4.2v-8.7H179V12.7z
		 M183.1,12l-1.8-8.7h3.9L187,12H183.1z M197.2,3.3h3.9l-1.8,8.7h-3.9L197.2,3.3z"/>
	<path class="st1" d="M220.8,1.4h4l4.3,6.9v2.5h-24.6V8.3l6.2-8.2h4.1l-6.2,8.2h16.5L220.8,1.4z M204.5,11.7h3.7V13l1-1.3H229V24
		h-3.7v-1h-17.1v1h-3.7L204.5,11.7L204.5,11.7z M208.2,20.6h17.1V14h-17.1V20.6z"/>
</g>
</svg>
